<?xml version="1.0" standalone="no"?><!DOCTYPE svg PUBLIC "-//W3C//DTD SVG 1.1//EN" "http://www.w3.org/Graphics/SVG/1.1/DTD/svg11.dtd"><svg t="1715179631454" class="icon" viewBox="0 0 1024 1024" version="1.1" xmlns="http://www.w3.org/2000/svg" p-id="12111" xmlns:xlink="http://www.w3.org/1999/xlink" width="200" height="200"><path d="M528.94403 504.728008C524.575086 500.330321 518.539045 497.570987 511.870656 497.570987 387.643182 497.570987 286.553865 396.797844 286.553865 272.915287 286.553865 149.032729 387.643182 48.230843 511.870656 48.230843 636.098131 48.230843 737.158704 149.032729 737.158704 272.915287 737.158704 339.340482 707.898277 402.000337 656.879358 444.856229 646.761803 453.364172 645.439623 468.454275 654.005052 478.57183 662.512996 488.631898 677.660585 489.982822 687.835626 481.446135 749.719418 429.507438 785.188346 353.482064 785.188346 272.915287 785.188346 122.617863 662.599225 0.344917 511.870656 0.344917 361.142087 0.344917 238.552967 122.617863 238.552967 272.915287 238.552967 381.104137 302.247572 474.519059 394.110369 518.49593 176.669174 571.440633 14.615842 766.807163 14.615842 999.683377 14.615842 1012.905182 25.365744 1023.62634 38.645035 1023.62634 51.895582 1023.62634 62.645484 1012.905182 62.645484 999.683377 62.645484 752.665581 264.163027 551.751642 511.870656 551.751642 759.549542 551.751642 961.095829 752.665581 961.095829 999.683377 961.095829 1012.905182 971.816988 1023.62634 985.096278 1023.62634 998.375568 1023.62634 1009.096727 1012.905182 1009.096727 999.683377 1009.096727 732.028069 795.190928 513.782069 528.94403 504.728008Z" p-id="12112" fill="#1296db"></path></svg>